<svg width="272" height="265" viewBox="0 0 272 265" fill="none" xmlns="http://www.w3.org/2000/svg">
<path d="M217.592 1.10155C212.563 2.27343 210.316 7.69335 212.709 12.7226C214.32 15.9941 215.932 16.7266 221.352 16.7266C226.527 16.7266 228.969 15.9453 229.848 14.0898C230.482 12.6738 230.873 12.625 235.854 13.3086C244.984 14.6269 251.771 21.0234 254.457 30.8867C256.801 39.334 254.506 59.6465 249.574 74.9297C247.084 82.5957 245.57 85.4766 243.52 86.4531C242.104 87.1367 241.273 88.1621 239.174 92.1172C232.582 104.52 222.719 113.455 211.244 117.459C207.777 118.68 206.02 118.973 201.332 119.168C192.152 119.51 185.756 117.996 178.48 113.748C170.619 109.158 160.365 97.4883 156.898 89.2363C156.117 87.332 155.336 86.2578 154.75 86.1113C153.139 85.8184 152.699 85.1348 150.209 78.8359C144.74 64.7734 142.055 50.9551 142.445 38.5039C142.641 32.6934 142.885 31.082 143.91 28.1523C145.473 23.8555 146.938 21.5117 149.965 18.582C153.969 14.7734 157.24 13.5039 165.053 12.625C167.494 12.3808 167.494 12.3808 168.715 14.2851C170.229 16.7754 172.377 17.4101 177.602 17.0683C182.24 16.7754 184.096 15.7988 185.658 12.8691C187.709 8.91405 186.781 4.47069 183.363 2.17577C181.801 1.10155 181.264 1.05272 176.186 1.19921C170.277 1.34569 168.324 2.12694 167.738 4.51952C167.494 5.54491 167.201 5.64257 163.1 5.78905C150.063 6.2285 140.541 13.4551 136.293 26.1504C135.072 29.7148 134.047 36.4531 134.047 40.6035C134.047 54.5195 140.443 79.2754 146.01 87.1367C147.523 89.1875 147.621 89.5293 147.133 91.0918C146.645 92.6543 146.791 93.1426 148.891 97.0977C158.314 114.822 174.184 127.371 189.955 129.568C193.617 130.105 194.008 130.252 193.959 131.18C193.959 131.766 193.959 136.111 194.008 140.848L194.105 149.539H199.232H204.359V139.773V130.057L206.215 129.764C212.758 128.689 221.4 125.711 226.039 122.879C233.559 118.289 239.613 112.039 246.205 102.176C251.039 94.9004 251.381 94.1191 251.039 91.5312C250.795 89.6269 250.941 88.9922 252.26 86.8926C260.756 73.123 265.883 41.873 261.977 28.0059C258.754 16.6289 251.381 8.86522 241.225 6.17968C239.906 5.78905 236.879 5.49608 234.535 5.49608C230.58 5.49608 230.287 5.44725 230.141 4.47069C229.701 1.541 223.158 -0.216808 217.592 1.10155Z" fill="white"/>
<path d="M118.666 14.7735C104.653 15.6036 85.8049 21.0235 70.3264 28.6407C50.1604 38.6017 35.0725 51.9806 22.426 71.17C15.883 81.0821 8.21703 97.0977 5.58032 106.277C4.65258 109.5 2.16235 121.707 1.47875 126.59C0.404535 133.963 0.0139102 148.807 0.697504 154.178C1.57641 160.867 3.52954 169.07 5.92211 176.395C8.75414 184.842 16.6155 200.906 21.1565 207.4C25.551 213.748 37.6116 227.469 42.5432 231.766C47.3284 235.965 56.3127 242.703 60.6096 245.34C64.9553 247.928 75.8928 253.397 79.8479 254.861C84.1448 256.473 103.969 261.697 109.145 262.576C122.572 264.822 136.537 265.506 151.918 264.578L159.34 264.139L159.535 258.719C159.682 255.74 159.731 253.299 159.731 253.25C159.682 253.25 157.729 253.397 155.287 253.592C139.418 254.959 135.707 255.057 127.797 254.568C116.322 253.787 110.756 253.055 107.924 251.981C106.606 251.443 101.772 250.076 97.1819 248.904C83.7541 245.535 75.3557 242.068 64.8088 235.428C54.5061 228.982 48.2561 223.709 40.4436 214.774C26.7229 199.149 19.1545 184.793 13.9299 164.529C10.9514 152.859 10.512 145.193 12.0256 130.252C13.3928 116.922 18.6174 99.9786 25.1116 87.7716C37.2698 64.9688 55.8733 47.0001 78.6272 36.0138C88.8323 31.0821 91.5178 30.1056 98.2073 28.9337C101.381 28.3477 105.776 27.4688 107.924 26.9317C111.196 26.1993 122.621 25.0274 127.26 25.0274C128.383 25.0274 128.578 24.7345 129.115 22.3419C129.457 20.877 130.483 18.5333 131.362 17.2149L133.022 14.7735H130.922C129.75 14.7735 127.846 14.6759 126.674 14.5782C125.502 14.4806 121.889 14.5782 118.666 14.7735Z" fill="white"/>
<path d="M156.703 22.7812C155.629 23.5625 152.797 27.3711 153.139 27.6641C153.627 28.0059 164.174 30.8867 165.102 30.8867C167.397 30.8867 170.326 28.4941 169.692 27.2246C169.399 26.5898 169.399 25.7109 169.789 24.9297C170.277 23.9043 169.789 23.7578 164.125 22.8301C158.608 21.9512 157.924 21.9023 156.703 22.7812Z" fill="white"/>
<path d="M181.215 34.793C172.133 36.6973 158.363 44.9493 155.14 50.3204C153.236 53.5919 153.285 59.5001 155.238 66.043C156.947 71.7071 161.097 81.961 162.367 83.6212L163.295 84.8419L164.662 83.8165C168.373 81.0821 170.912 75.3204 172.084 67.2637C172.377 65.1153 172.963 60.8184 173.402 57.7423C174.281 51.1505 175.209 48.1719 177.553 44.3145C180.14 39.8712 185.121 35.379 186.146 36.4532C186.293 36.5997 185.267 38.4551 183.851 40.6036C180.092 46.3653 179.164 49.1485 177.992 57.7911C176.234 71.3165 175.404 74.9298 172.572 81.0821C171.791 82.7423 171.156 84.5001 171.156 84.9883C171.205 87.6251 176.869 96.3165 180.336 98.9532C183.851 101.736 190.687 104.568 190.687 103.299C190.687 103.055 189.711 101.785 188.49 100.369C187.269 99.002 186.293 97.7813 186.293 97.6348C186.293 97.5372 187.367 97.5372 188.685 97.6837C192.396 98.0255 194.349 97.4395 196.84 95.2911L199.135 93.338L200.892 95.0469C202.211 96.3165 203.529 97.0001 206.068 97.6348C209.486 98.5137 209.486 98.5626 209.633 100.369C209.73 101.541 209.584 102.176 209.193 102.176C208.851 102.176 208.754 102.322 208.9 102.518C209.095 102.664 208.851 103.104 208.363 103.445C207.679 103.982 207.777 104.031 209.242 103.641C215.101 101.981 220.082 97.7813 223.939 91.1407C227.894 84.4512 227.894 84.4512 225.16 78.836C222.67 73.5626 221.547 69.0704 220.228 58.7188C219.203 50.8575 217.885 45.7305 215.785 41.5801C213.881 37.7716 213.881 37.7227 214.808 37.7227C215.98 37.7227 218.422 40.1153 219.935 42.752C222.377 47.0489 223.793 52.2247 224.867 60.7208C225.453 65.1153 226.234 69.9493 226.674 71.4141C228.236 76.8341 232.777 84.5977 234.388 84.5977C235.951 84.5977 239.564 76.8341 242.64 66.7755C245.668 56.9122 245.033 51.9805 240.15 47.0977C234.584 41.5313 221.888 34.9884 215.59 34.4512L212.709 34.1583L209.193 37.5274C203.334 43.1915 201.82 47.3907 201.722 58.2305C201.722 62.1368 201.478 65.6036 201.283 65.8966C201.039 66.2383 200.453 66.5313 199.916 66.5313C197.963 66.5313 199.086 67.3614 201.429 67.6544C207.094 68.338 214.076 73.4161 217.299 79.2755C218.519 81.4727 218.763 82.4005 218.715 85.086C218.617 89.9688 216.273 94.5587 213.197 95.8282C211.83 96.3653 211.39 96.2676 208.51 94.8516C202.797 92.0196 201.332 90.213 201.234 85.7696C201.185 83.3282 201.283 83.1329 203.431 81.2286C206.361 78.6895 206.801 77.0782 205.092 75.3692C203.92 74.1485 203.578 74.0997 198.695 74.0997C194.154 74.0997 193.47 74.1973 192.836 75.0274C191.566 76.8341 192.006 78.5919 194.349 81.1309C196.449 83.377 196.547 83.6212 196.547 86.4044C196.547 90.0176 195.619 91.3848 192.006 93.1915C190.59 93.8751 189.125 94.9005 188.685 95.4376C187.513 96.9024 185.072 96.7559 183.314 95.0469C179.262 91.1895 178.48 85.4278 181.263 79.5684C183.363 75.1739 187.416 71.1212 191.81 69.0704C193.617 68.1915 195.375 67.5079 195.765 67.5079C196.303 67.5079 196.4 65.9454 196.205 58.5723C195.863 46.4141 195.179 43.5821 190.736 36.6485C188.685 33.377 188.441 33.3282 181.215 34.793ZM187.465 59.793C188.539 61.3067 188.441 63.4063 187.269 64.5782C185.951 65.8966 185.023 65.7989 183.314 64.1387C181.654 62.4298 181.556 61.7462 182.924 59.9884C184.193 58.377 186.39 58.2794 187.465 59.793ZM214.857 59.9395C217.64 62.6739 215.15 66.629 211.732 64.8223C209.633 63.7481 209.144 61.7462 210.512 59.793C211.488 58.377 213.392 58.4259 214.857 59.9395Z" fill="white"/>
<path d="M107.924 36.7461C108.071 36.9902 108.315 37.2344 108.461 37.2344C108.559 37.2344 108.657 36.9902 108.657 36.7461C108.657 36.4531 108.413 36.2578 108.12 36.2578C107.875 36.2578 107.778 36.4531 107.924 36.7461Z" fill="white"/>
<path d="M94.9844 39.383C94.9844 40.3107 95.2773 42.5568 95.668 44.4123C96.3516 47.7326 97.084 52.8107 97.6699 58.5724C98.0117 62.3322 97.4746 62.5275 94.5937 59.7443C92.8359 58.0353 92.5918 57.4494 92.0547 54.2755C91.7617 52.2736 91.2734 49.9298 91.0293 49.0998C90.541 47.5861 87.0742 44.0705 86.0488 44.0705C85.5117 44.0705 85.9512 51.6877 86.6836 55.3009C87.123 57.4494 87.123 57.547 85.3164 58.963C79.7988 63.4064 77.8945 65.7502 76.4297 69.6076C74.623 74.4904 73.5 76.1017 70.375 78.299C67.9824 79.9591 67.8848 80.1056 67.9824 82.1076C68.1289 84.9396 71.5469 90.8966 74.6719 93.6798C77.8945 96.6095 81.0195 97.4884 86.9766 97.1955L91.4687 96.9513L91.2246 98.9533C90.7363 103.152 89.0762 108.768 87.6602 110.965C84.584 115.799 80.2383 118.973 72.7187 122C59.3398 127.42 53.0898 131.277 45.4238 138.992C39.3203 145.047 36.9766 148.074 33.2656 154.569C29.457 161.307 25.6484 171.854 25.6484 175.662C25.6484 177.322 29.4082 185.721 33.1191 192.361C42.7383 209.695 56.2148 223.123 74.4277 233.475L78.9687 236.111L88.0019 236.6C94.2519 236.942 97.1816 236.893 97.5234 236.551C97.8164 236.258 98.1582 235.037 98.2559 233.817C98.5977 230.985 97.4746 227.908 95.375 225.76C92.4453 222.733 91.6641 222.537 82.1914 222.391C76.5273 222.293 73.5 222.049 73.5 221.707C73.5 221.414 75.3066 219.412 77.5527 217.215C84.1445 210.721 86.7324 205.008 86.7324 196.903C86.7324 184.695 78.2363 174.93 66.2734 173.465C58.4121 172.44 49.2812 175.369 43.666 180.643C42.1523 182.059 41.7617 181.717 41.6641 178.641C41.5176 176.053 42.2012 175.174 47.1328 171.512C53.0898 167.117 61.7324 165.262 69.1055 166.824C73.9883 167.85 80.4336 171.072 83.6074 174.1C85.0234 175.418 87.3184 178.25 88.6367 180.35C90.0039 182.498 91.1758 184.207 91.2734 184.207C91.3711 184.207 90.9316 182.156 90.2969 179.666C89.6621 177.225 88.832 173.319 88.4414 171.024C87.5625 165.848 86.8301 152.029 87.5137 152.713C88.2949 153.494 92.3477 167.069 94.4961 176.053C95.5703 180.545 97.1816 188.602 98.1582 193.924C99.0859 199.246 100.502 206.668 101.332 210.379C102.162 214.139 103.285 219.217 103.822 221.756C104.75 225.955 106.508 231.961 107.729 234.988L108.217 236.258L118.568 236.404L128.969 236.551L129.555 235.233C131.996 229.861 126.43 222.781 119.691 222.781C118.178 222.781 117.445 222.537 117.25 222C116.762 220.779 116.908 198.319 117.445 189.578C118.08 179.276 119.203 170.145 120.375 165.604C121.498 161.111 123.549 155.643 124.721 153.983C125.209 153.299 126.332 151.297 127.211 149.588C128.09 147.83 129.164 145.877 129.652 145.194C130.873 143.485 133.949 135.135 134.926 130.838C135.561 128.104 135.707 124.783 135.707 115.848C135.707 105.203 135.609 103.934 134.34 98.0255C131.215 83.2306 125.355 69.9982 117.152 59.4025C113.344 54.4709 98.6953 39.5783 96.5957 38.5041L94.9844 37.674V39.383ZM87.8555 70.9748C89.4668 72.2443 89.4668 73.8068 87.9043 75.5158C86.4394 77.0783 84.1934 77.2248 82.7285 75.7599C81.459 74.4904 81.8008 72.6349 83.5586 71.0236C85.0723 69.7052 86.1953 69.6564 87.8555 70.9748Z" fill="white"/>
<path d="M126.723 57.205C126.723 57.498 126.967 57.8398 127.211 57.9863C127.504 58.1328 127.699 57.9374 127.699 57.5468C127.699 57.1074 127.504 56.7656 127.211 56.7656C126.967 56.7656 126.723 56.9609 126.723 57.205Z" fill="white"/>
<path d="M260.024 94.168C259.438 95.4375 257.973 98.0254 256.753 99.8809L254.507 103.299L255.776 107.254C258.462 115.701 259.682 122.391 260.512 133.426C262.368 158.133 253.188 187.039 236.489 208.865C222.622 226.98 203.335 241.092 182.387 248.367C179.018 249.539 176.284 250.76 176.333 251.053C176.382 251.346 176.43 253.689 176.479 256.277L176.528 260.965L178.676 260.672C182.436 260.086 191.225 257.01 197.28 254.08C205.092 250.369 208.901 248.074 216.372 242.703C227.651 234.646 232.778 230.105 239.614 222.049C255.19 203.787 264.907 184.109 269.594 161.258C273.745 141.385 271.548 117.264 263.833 97.4395C262.758 94.6563 261.684 92.3125 261.44 92.166C261.196 91.9707 260.561 92.8985 260.024 94.168Z" fill="white"/>
<path d="M193.959 165.018C193.715 174.002 193.52 175.809 192.055 181.766C190.444 188.65 185.756 199.393 181.655 205.789C177.992 211.453 173.598 216.824 168.666 221.658C153.871 236.111 144.496 240.115 115.981 244.217C106.801 245.535 105.385 246.268 107.826 248.563C109.633 250.272 113.735 251.248 117.446 250.906C119.203 250.711 124.135 250.272 128.432 249.881C142.739 248.66 154.311 244.949 163.588 238.504C168.715 234.988 177.602 226.736 182.143 221.268C188.539 213.602 195.815 201.492 198.744 193.729C202.114 184.744 203.969 174.1 204.067 163.455L204.115 155.643L199.184 155.496L194.252 155.35L193.959 165.018Z" fill="white"/>
<path d="M137.124 162.674C131.801 165.115 129.311 169.998 129.799 176.932C129.946 179.031 130.19 180.936 130.385 181.229C130.776 181.912 142.544 181.961 143.813 181.277C144.301 180.984 145.669 179.471 146.792 177.811C149.184 174.441 149.379 174.49 151.137 179.227C152.26 182.156 154.458 186.16 154.995 186.16C155.19 186.16 156.85 183.865 158.706 181.082C162.417 175.564 162.856 175.369 163.784 179.031C164.419 181.619 164.956 181.766 172.915 181.766H178.432L178.774 180.008C178.92 179.08 178.969 176.59 178.872 174.49C178.627 170.096 177.309 167.361 174.282 164.676C171.792 162.527 169.741 161.746 166.42 161.746C162.758 161.746 159.194 163.406 156.264 166.434L154.018 168.729L151.235 165.994C149.721 164.48 147.622 162.918 146.645 162.479C144.155 161.453 139.663 161.551 137.124 162.674Z" fill="white"/>
<path d="M147.328 184.207L146.205 186.16H139.662H133.07L134.242 187.479C134.877 188.26 136.977 190.701 138.93 192.996C140.883 195.291 143.617 198.318 144.984 199.734C147.768 202.664 153.09 206.668 154.164 206.668C155.141 206.668 158.705 204.275 161.928 201.443C166.127 197.732 175.551 187.674 175.551 186.893C175.551 186.307 174.525 186.16 169.594 186.16C164.271 186.16 163.539 186.062 162.562 185.135L161.488 184.158L160.512 185.525C160.023 186.258 159.096 187.771 158.559 188.846C158.021 189.92 156.898 191.58 156.117 192.508L154.701 194.168L151.82 188.26C150.258 184.988 148.842 182.303 148.695 182.303C148.549 182.254 147.963 183.133 147.328 184.207Z" fill="white"/>
<path d="M93.1777 204.471C92.8848 205.008 92.2988 206.766 91.8105 208.377C91.3711 209.988 90.3945 212.332 89.6133 213.553L88.2461 215.799L90.6875 216.092C92.2988 216.287 93.6172 216.775 94.3496 217.508L95.5215 218.582L95.2285 216.678C95.0332 215.604 94.6426 212.186 94.3008 209.109C93.8125 204.568 93.6172 203.689 93.1777 204.471Z" fill="white"/>
</svg>
