<svg width="217" height="46" viewBox="0 0 217 46" fill="none" xmlns="http://www.w3.org/2000/svg">
<g clip-path="url(#clip0_380_6)">
<path d="M22.9997 0C35.7026 0 45.9997 10.2971 45.9997 23V39.1C45.9997 40.93 45.2728 42.685 43.9788 43.979C42.6848 45.273 40.9297 46 39.0997 46H24.1497V35.9099C24.1497 33.6076 24.29 31.2225 25.4975 29.2629C26.362 27.8586 27.5185 26.6566 28.8884 25.7385C30.2583 24.8204 31.8096 24.2077 33.4371 23.9419L33.8776 23.8706C34.0592 23.8085 34.2168 23.6912 34.3284 23.5351C34.44 23.379 34.5 23.1919 34.5 23C34.5 22.8081 34.44 22.621 34.3284 22.4649C34.2168 22.3088 34.0592 22.1915 33.8776 22.1294L33.4371 22.0581C31.0591 21.6697 28.8632 20.5441 27.1594 18.8403C25.4556 17.1365 24.3301 14.9406 23.9416 12.5626L23.8703 12.1222C23.8082 11.9406 23.6909 11.7829 23.5348 11.6713C23.3787 11.5597 23.1916 11.4997 22.9997 11.4997C22.8078 11.4997 22.6208 11.5597 22.4647 11.6713C22.3086 11.7829 22.1913 11.9406 22.1292 12.1222L22.0579 12.5626C21.7922 14.1902 21.1795 15.7415 20.2614 17.1114C19.3433 18.4814 18.1412 19.6378 16.7368 20.5022C14.7772 21.7097 12.3921 21.85 10.0898 21.85H0.0273438C0.628794 9.68185 10.6832 0 22.9997 0Z" fill="#5F6FFF"/>
<path d="M0 24.15H10.0901C12.3924 24.15 14.7775 24.2903 16.7371 25.4978C18.2689 26.4417 19.5583 27.7311 20.5022 29.2629C21.7097 31.2225 21.85 33.6076 21.85 35.9099V46H6.9C5.07001 46 3.31496 45.273 2.02096 43.979C0.726962 42.685 0 40.93 0 39.1V24.15ZM46 2.3C46 2.91 45.7577 3.49501 45.3263 3.92635C44.895 4.35768 44.31 4.6 43.7 4.6C43.09 4.6 42.505 4.35768 42.0737 3.92635C41.6423 3.49501 41.4 2.91 41.4 2.3C41.4 1.69 41.6423 1.10499 42.0737 0.673654C42.505 0.242321 43.09 0 43.7 0C44.31 0 44.895 0.242321 45.3263 0.673654C45.7577 1.10499 46 1.69 46 2.3Z" fill="#5F6FFF"/>
<path d="M78.6757 9.576C78.6757 10.552 78.4517 11.448 78.0037 12.264C77.5557 13.064 76.8677 13.712 75.9397 14.208C75.0117 14.704 73.8597 14.952 72.4837 14.952H69.9397V21H65.8357V4.152H72.4837C73.8277 4.152 74.9637 4.384 75.8917 4.848C76.8197 5.312 77.5157 5.952 77.9797 6.768C78.4437 7.584 78.6757 8.52 78.6757 9.576ZM72.1717 11.688C72.9557 11.688 73.5397 11.504 73.9237 11.136C74.3077 10.768 74.4997 10.248 74.4997 9.576C74.4997 8.904 74.3077 8.384 73.9237 8.016C73.5397 7.648 72.9557 7.464 72.1717 7.464H69.9397V11.688H72.1717ZM93.4362 14.088C93.4362 14.472 93.4122 14.872 93.3642 15.288H84.0762C84.1402 16.12 84.4042 16.76 84.8682 17.208C85.3482 17.64 85.9322 17.856 86.6202 17.856C87.6442 17.856 88.3562 17.424 88.7562 16.56H93.1242C92.9002 17.44 92.4922 18.232 91.9002 18.936C91.3242 19.64 90.5962 20.192 89.7162 20.592C88.8362 20.992 87.8522 21.192 86.7642 21.192C85.4522 21.192 84.2842 20.912 83.2602 20.352C82.2362 19.792 81.4362 18.992 80.8602 17.952C80.2842 16.912 79.9962 15.696 79.9962 14.304C79.9962 12.912 80.2762 11.696 80.8362 10.656C81.4122 9.616 82.2122 8.816 83.2362 8.256C84.2602 7.696 85.4362 7.416 86.7642 7.416C88.0602 7.416 89.2122 7.688 90.2202 8.232C91.2282 8.776 92.0122 9.552 92.5722 10.56C93.1482 11.568 93.4362 12.744 93.4362 14.088ZM89.2362 13.008C89.2362 12.304 88.9962 11.744 88.5162 11.328C88.0362 10.912 87.4362 10.704 86.7162 10.704C86.0282 10.704 85.4442 10.904 84.9642 11.304C84.5002 11.704 84.2122 12.272 84.1002 13.008H89.2362ZM103.065 17.52V21H100.977C99.4893 21 98.3293 20.64 97.4973 19.92C96.6653 19.184 96.2493 17.992 96.2493 16.344V11.016H94.6173V7.608H96.2493V4.344H100.353V7.608H103.041V11.016H100.353V16.392C100.353 16.792 100.449 17.08 100.641 17.256C100.833 17.432 101.153 17.52 101.601 17.52H103.065ZM128.535 4.152L124.143 21H119.175L116.487 9.912L113.703 21H108.735L104.463 4.152H108.855L111.279 16.416L114.279 4.152H118.791L121.671 16.416L124.119 4.152H128.535ZM143.217 14.088C143.217 14.472 143.193 14.872 143.145 15.288H133.857C133.921 16.12 134.185 16.76 134.649 17.208C135.129 17.64 135.713 17.856 136.401 17.856C137.425 17.856 138.137 17.424 138.537 16.56H142.905C142.681 17.44 142.273 18.232 141.681 18.936C141.105 19.64 140.377 20.192 139.497 20.592C138.617 20.992 137.633 21.192 136.545 21.192C135.233 21.192 134.065 20.912 133.041 20.352C132.017 19.792 131.217 18.992 130.641 17.952C130.065 16.912 129.777 15.696 129.777 14.304C129.777 12.912 130.057 11.696 130.617 10.656C131.193 9.616 131.993 8.816 133.017 8.256C134.041 7.696 135.217 7.416 136.545 7.416C137.841 7.416 138.993 7.688 140.001 8.232C141.009 8.776 141.793 9.552 142.353 10.56C142.929 11.568 143.217 12.744 143.217 14.088ZM139.017 13.008C139.017 12.304 138.777 11.744 138.297 11.328C137.817 10.912 137.217 10.704 136.497 10.704C135.809 10.704 135.225 10.904 134.745 11.304C134.281 11.704 133.993 12.272 133.881 13.008H139.017ZM149.487 3.24V21H145.383V3.24H149.487ZM156.565 3.24V21H152.461V3.24H156.565ZM174.611 21H170.507L163.643 10.608V21H159.539V4.152H163.643L170.507 14.592V4.152H174.611V21ZM190.21 14.088C190.21 14.472 190.186 14.872 190.138 15.288H180.85C180.914 16.12 181.178 16.76 181.642 17.208C182.122 17.64 182.706 17.856 183.394 17.856C184.418 17.856 185.13 17.424 185.53 16.56H189.898C189.674 17.44 189.266 18.232 188.674 18.936C188.098 19.64 187.37 20.192 186.49 20.592C185.61 20.992 184.626 21.192 183.538 21.192C182.226 21.192 181.058 20.912 180.034 20.352C179.01 19.792 178.21 18.992 177.634 17.952C177.058 16.912 176.77 15.696 176.77 14.304C176.77 12.912 177.05 11.696 177.61 10.656C178.186 9.616 178.986 8.816 180.01 8.256C181.034 7.696 182.21 7.416 183.538 7.416C184.834 7.416 185.986 7.688 186.994 8.232C188.002 8.776 188.786 9.552 189.346 10.56C189.922 11.568 190.21 12.744 190.21 14.088ZM186.01 13.008C186.01 12.304 185.77 11.744 185.29 11.328C184.81 10.912 184.21 10.704 183.49 10.704C182.802 10.704 182.218 10.904 181.738 11.304C181.274 11.704 180.986 12.272 180.874 13.008H186.01ZM197.823 21.192C196.655 21.192 195.615 20.992 194.703 20.592C193.791 20.192 193.071 19.648 192.543 18.96C192.015 18.256 191.719 17.472 191.655 16.608H195.711C195.759 17.072 195.975 17.448 196.359 17.736C196.743 18.024 197.215 18.168 197.775 18.168C198.287 18.168 198.679 18.072 198.951 17.88C199.239 17.672 199.383 17.408 199.383 17.088C199.383 16.704 199.183 16.424 198.783 16.248C198.383 16.056 197.735 15.848 196.839 15.624C195.879 15.4 195.079 15.168 194.439 14.928C193.799 14.672 193.247 14.28 192.783 13.752C192.319 13.208 192.087 12.48 192.087 11.568C192.087 10.8 192.295 10.104 192.711 9.48C193.143 8.84 193.767 8.336 194.583 7.968C195.415 7.6 196.399 7.416 197.535 7.416C199.215 7.416 200.535 7.832 201.495 8.664C202.471 9.496 203.031 10.6 203.175 11.976H199.383C199.319 11.512 199.111 11.144 198.759 10.872C198.423 10.6 197.975 10.464 197.415 10.464C196.935 10.464 196.567 10.56 196.311 10.752C196.055 10.928 195.927 11.176 195.927 11.496C195.927 11.88 196.127 12.168 196.527 12.36C196.943 12.552 197.583 12.744 198.447 12.936C199.439 13.192 200.247 13.448 200.871 13.704C201.495 13.944 202.039 14.344 202.503 14.904C202.983 15.448 203.231 16.184 203.247 17.112C203.247 17.896 203.023 18.6 202.575 19.224C202.143 19.832 201.511 20.312 200.679 20.664C199.863 21.016 198.911 21.192 197.823 21.192ZM211.206 21.192C210.038 21.192 208.998 20.992 208.086 20.592C207.174 20.192 206.454 19.648 205.926 18.96C205.398 18.256 205.102 17.472 205.038 16.608H209.094C209.142 17.072 209.358 17.448 209.742 17.736C210.126 18.024 210.598 18.168 211.158 18.168C211.67 18.168 212.062 18.072 212.334 17.88C212.622 17.672 212.766 17.408 212.766 17.088C212.766 16.704 212.566 16.424 212.166 16.248C211.766 16.056 211.118 15.848 210.222 15.624C209.262 15.4 208.462 15.168 207.822 14.928C207.182 14.672 206.63 14.28 206.166 13.752C205.702 13.208 205.47 12.48 205.47 11.568C205.47 10.8 205.678 10.104 206.094 9.48C206.526 8.84 207.15 8.336 207.966 7.968C208.798 7.6 209.782 7.416 210.918 7.416C212.598 7.416 213.918 7.832 214.878 8.664C215.854 9.496 216.414 10.6 216.558 11.976H212.766C212.702 11.512 212.494 11.144 212.142 10.872C211.806 10.6 211.358 10.464 210.798 10.464C210.318 10.464 209.95 10.56 209.694 10.752C209.438 10.928 209.31 11.176 209.31 11.496C209.31 11.88 209.51 12.168 209.91 12.36C210.326 12.552 210.966 12.744 211.83 12.936C212.822 13.192 213.63 13.448 214.254 13.704C214.878 13.944 215.422 14.344 215.886 14.904C216.366 15.448 216.614 16.184 216.63 17.112C216.63 17.896 216.406 18.6 215.958 19.224C215.526 19.832 214.894 20.312 214.062 20.664C213.246 21.016 212.294 21.192 211.206 21.192ZM132.072 29.152V46H127.968V39.064H121.584V46H117.48V29.152H121.584V35.752H127.968V29.152H132.072ZM148.259 32.608V46H144.155V44.176C143.739 44.768 143.171 45.248 142.451 45.616C141.747 45.968 140.963 46.144 140.099 46.144C139.075 46.144 138.171 45.92 137.387 45.472C136.603 45.008 135.995 44.344 135.563 43.48C135.131 42.616 134.915 41.6 134.915 40.432V32.608H138.995V39.88C138.995 40.776 139.227 41.472 139.691 41.968C140.155 42.464 140.779 42.712 141.563 42.712C142.363 42.712 142.995 42.464 143.459 41.968C143.923 41.472 144.155 40.776 144.155 39.88V32.608H148.259ZM155.311 34.504C155.695 33.88 156.247 33.376 156.967 32.992C157.687 32.608 158.511 32.416 159.439 32.416C160.543 32.416 161.543 32.696 162.439 33.256C163.335 33.816 164.039 34.616 164.551 35.656C165.079 36.696 165.343 37.904 165.343 39.28C165.343 40.656 165.079 41.872 164.551 42.928C164.039 43.968 163.335 44.776 162.439 45.352C161.543 45.912 160.543 46.192 159.439 46.192C158.495 46.192 157.671 46.008 156.967 45.64C156.263 45.256 155.711 44.752 155.311 44.128V46H151.207V28.24H155.311V34.504ZM161.167 39.28C161.167 38.256 160.879 37.456 160.303 36.88C159.743 36.288 159.047 35.992 158.215 35.992C157.399 35.992 156.703 36.288 156.127 36.88C155.567 37.472 155.287 38.28 155.287 39.304C155.287 40.328 155.567 41.136 156.127 41.728C156.703 42.32 157.399 42.616 158.215 42.616C159.031 42.616 159.727 42.32 160.303 41.728C160.879 41.12 161.167 40.304 161.167 39.28Z" fill="white"/>
</g>
<defs>
<clipPath id="clip0_380_6">
<rect width="217" height="46" fill="white"/>
</clipPath>
</defs>
</svg>
