<svg width="71" height="69" viewBox="0 0 71 69" fill="none" xmlns="http://www.w3.org/2000/svg">
<path d="M56.4074 0.895206C55.1098 1.19757 54.5303 2.59599 55.1476 3.89362C55.5633 4.73772 55.9791 4.92669 57.3775 4.92669C58.7129 4.92669 59.3429 4.72512 59.5696 4.24638C59.7334 3.88103 59.8342 3.86843 61.1192 4.04481C63.4751 4.38496 65.2263 6.03535 65.9192 8.58023C66.5239 10.7598 65.9318 16.0007 64.6594 19.944C64.0169 21.9219 63.6263 22.6652 63.0972 22.9172C62.7318 23.0936 62.5176 23.3581 61.9759 24.3786C60.2751 27.5786 57.7303 29.8841 54.7696 30.9172C53.8751 31.2321 53.4216 31.3077 52.2122 31.3581C49.8437 31.4463 48.1933 31.0558 46.3161 29.9597C44.2878 28.7755 41.6421 25.7644 40.7476 23.6353C40.546 23.144 40.3445 22.8668 40.1933 22.829C39.7775 22.7534 39.6642 22.577 39.0216 20.9519C37.6106 17.3235 36.9177 13.7582 37.0185 10.5456C37.0689 9.04637 37.1319 8.63062 37.3964 7.87472C37.7996 6.76606 38.1775 6.16134 38.9586 5.40543C39.9917 4.42276 40.8358 4.0952 42.8515 3.86843C43.4815 3.80544 43.4815 3.80544 43.7964 4.29677C44.187 4.93929 44.7413 5.10307 46.0893 5.01488C47.2862 4.93929 47.7649 4.68732 48.1681 3.93142C48.6972 2.91095 48.4578 1.7645 47.5759 1.17237C47.1728 0.895206 47.0342 0.882607 45.724 0.920402C44.1996 0.958198 43.6956 1.15977 43.5445 1.77709C43.4815 2.04166 43.4059 2.06686 42.3476 2.10465C38.9838 2.21804 36.5271 4.0826 35.4311 7.35818C35.1161 8.27787 34.8516 10.0164 34.8516 11.0873C34.8516 14.6779 36.502 21.0652 37.9382 23.0936C38.3287 23.6227 38.3539 23.7109 38.2279 24.1141C38.1019 24.5172 38.1397 24.6432 38.6815 25.6637C41.113 30.2369 45.2074 33.4747 49.2767 34.0416C50.2216 34.1802 50.3224 34.218 50.3098 34.4573C50.3098 34.6085 50.3098 35.7298 50.3224 36.9518L50.3476 39.1943H51.6704H52.9933V36.6747V34.1676L53.472 34.092C55.1602 33.8148 57.3901 33.0463 58.5869 32.3156C60.5271 31.1314 62.0893 29.5188 63.7901 26.9739C65.0373 25.0967 65.1255 24.8952 65.0373 24.2274C64.9743 23.7361 65.0121 23.5723 65.3523 23.0306C67.5444 19.4778 68.8672 11.4149 67.8594 7.83692C67.0279 4.9015 65.1255 2.89835 62.505 2.20544C62.1649 2.10465 61.3838 2.02906 60.7791 2.02906C59.7586 2.02906 59.683 2.01646 59.6452 1.7645C59.5318 1.00859 57.8436 0.555049 56.4074 0.895206Z" fill="black"/>
<path d="M30.8829 4.42291C27.2672 4.63709 22.4042 6.03551 18.4105 8.00086C13.2073 10.5709 9.31444 14.0229 6.05146 18.9741C4.36327 21.5315 2.38532 25.6638 1.70501 28.0323C1.46564 28.8638 0.82312 32.0134 0.646743 33.2732C0.369578 35.1756 0.268791 39.0055 0.445168 40.3913C0.671939 42.1173 1.17588 44.2338 1.7932 46.1236C2.5239 48.3031 4.55225 52.448 5.7239 54.1236C6.85775 55.7614 9.96956 59.3015 11.242 60.4102C12.4766 61.4937 14.7947 63.2322 15.9034 63.9125C17.0247 64.5803 19.8467 65.9913 20.8672 66.3692C21.9758 66.785 27.0908 68.133 28.4262 68.3598C31.8908 68.9393 35.4939 69.1157 39.4624 68.8763L41.3774 68.7629L41.4278 67.3645C41.4656 66.596 41.4782 65.9661 41.4782 65.9535C41.4656 65.9535 40.9616 65.9913 40.3317 66.0417C36.2372 66.3944 35.2797 66.4196 33.2388 66.2936C30.2782 66.0921 28.842 65.9031 28.1113 65.6259C27.7711 65.4873 26.5239 65.1346 25.3396 64.8322C21.875 63.9629 19.7081 63.0685 16.9869 61.3551C14.3286 59.6921 12.716 58.3315 10.7003 56.0259C7.16011 51.9945 5.20736 48.2905 3.85933 43.0622C3.09083 40.0512 2.97745 38.0732 3.368 34.2181C3.72075 30.7788 5.06878 26.4071 6.74437 23.2575C9.88137 17.3741 14.6814 12.7379 20.5522 9.90322C23.1853 8.63078 23.8782 8.37881 25.6042 8.07645C26.4231 7.92527 27.5569 7.6985 28.1113 7.55992C28.9553 7.37094 31.9034 7.06858 33.1002 7.06858C33.39 7.06858 33.4404 6.99299 33.579 6.37567C33.6671 5.99771 33.9317 5.39299 34.1585 5.05283L34.5868 4.42291H34.0451C33.7427 4.42291 33.2514 4.39772 32.949 4.37252C32.6467 4.34732 31.7144 4.37252 30.8829 4.42291Z" fill="black"/>
<path d="M40.6965 6.48899C40.4194 6.69056 39.6887 7.67324 39.7769 7.74883C39.9029 7.83702 42.6241 8.58032 42.8635 8.58032C43.4556 8.58032 44.2115 7.963 44.0477 7.63544C43.9721 7.47166 43.9721 7.24489 44.0729 7.04332C44.1989 6.77875 44.0729 6.74096 42.6115 6.50159C41.1879 6.27482 41.0115 6.26222 40.6965 6.48899Z" fill="black"/>
<path d="M47.0219 9.58835C44.6786 10.0797 41.1259 12.2088 40.2944 13.5946C39.803 14.4387 39.8156 15.9631 40.3196 17.6513C40.7605 19.1127 41.8314 21.7584 42.1589 22.1867L42.3983 22.5017L42.751 22.2371C43.7085 21.5316 44.3636 20.045 44.666 17.9663C44.7416 17.412 44.8928 16.3033 45.0062 15.5096C45.2329 13.8088 45.4723 13.0403 46.077 12.045C46.7447 10.8986 48.0298 9.73953 48.2943 10.0167C48.3321 10.0545 48.0676 10.5332 47.7022 11.0876C46.7321 12.5742 46.4928 13.2923 46.1904 15.5222C45.7369 19.0119 45.5227 19.9442 44.792 21.5316C44.5904 21.96 44.4266 22.4135 44.4266 22.5395C44.4392 23.2198 45.9006 25.4623 46.7951 26.1426C47.7022 26.8608 49.466 27.5915 49.466 27.2639C49.466 27.2009 49.214 26.8733 48.8991 26.508C48.5841 26.1552 48.3321 25.8403 48.3321 25.8025C48.3321 25.7773 48.6093 25.7773 48.9495 25.8151C49.9069 25.9033 50.4109 25.7521 51.0534 25.1978L51.6455 24.6938L52.0991 25.1348C52.4392 25.4623 52.7794 25.6387 53.4345 25.8025C54.3164 26.0293 54.3164 26.0419 54.3542 26.508C54.3794 26.8104 54.3416 26.9741 54.2408 26.9741C54.1526 26.9741 54.1274 27.0119 54.1652 27.0623C54.2156 27.1001 54.1526 27.2135 54.0266 27.3017C53.8502 27.4403 53.8754 27.4529 54.2534 27.3521C55.7652 26.9237 57.0502 25.8403 58.0455 24.1269C59.066 22.4009 59.066 22.4009 58.3605 20.9521C57.7179 19.5915 57.4282 18.4324 57.088 15.7616C56.8235 13.7332 56.4833 12.4104 55.9416 11.3395C55.4502 10.3569 55.4502 10.3443 55.6896 10.3443C55.992 10.3443 56.6219 10.9616 57.0124 11.6419C57.6424 12.7505 58.0077 14.086 58.2849 16.2781C58.4361 17.412 58.6376 18.6592 58.751 19.0371C59.1542 20.4356 60.3258 22.4387 60.7416 22.4387C61.1447 22.4387 62.077 20.4356 62.8707 17.8403C63.6518 15.2954 63.488 14.023 62.2282 12.7631C60.792 11.3269 57.5164 9.63874 55.8912 9.50016L55.1479 9.42457L54.2408 10.2939C52.729 11.7553 52.3384 12.8387 52.3132 15.6356C52.3132 16.6435 52.2502 17.5379 52.1998 17.6135C52.1369 17.7017 51.9857 17.7773 51.8471 17.7773C51.3432 17.7773 51.6329 17.9915 52.2376 18.0671C53.6991 18.2434 55.5006 19.5537 56.3321 21.0655C56.6471 21.6324 56.7101 21.8718 56.6975 22.5647C56.6723 23.8245 56.0676 25.0088 55.2739 25.3363C54.9211 25.4749 54.8077 25.4497 54.0644 25.0844C52.5904 24.3537 52.2124 23.8875 52.1872 22.7411C52.1746 22.1112 52.1998 22.0608 52.7542 21.5694C53.5101 20.9143 53.6235 20.4986 53.1825 20.0576C52.8802 19.7427 52.792 19.7301 51.5321 19.7301C50.3605 19.7301 50.1841 19.7553 50.0203 19.9694C49.6928 20.4356 49.8061 20.8891 50.4109 21.5442C50.9526 22.1238 50.9778 22.1867 50.9778 22.9049C50.9778 23.8371 50.7384 24.1899 49.8061 24.656C49.4408 24.8324 49.0628 25.097 48.9495 25.2356C48.6471 25.6135 48.0172 25.5757 47.5636 25.1348C46.518 24.1395 46.3164 22.6529 47.0345 21.1411C47.5762 20.0072 48.6219 18.9616 49.7558 18.4324C50.2219 18.2057 50.6754 18.0293 50.7762 18.0293C50.9148 18.0293 50.94 17.6261 50.8896 15.7238C50.8014 12.5868 50.625 11.8561 49.4786 10.0671C48.9495 9.22299 48.8865 9.2104 47.0219 9.58835ZM48.6345 16.0387C48.9117 16.4293 48.8865 16.971 48.5841 17.2734C48.2439 17.6135 48.0046 17.5883 47.5636 17.16C47.1353 16.719 47.1101 16.5427 47.4628 16.0891C47.7904 15.6734 48.3573 15.6482 48.6345 16.0387ZM55.7022 16.0765C56.4203 16.782 55.7778 17.8025 54.8959 17.3364C54.3542 17.0592 54.2282 16.5427 54.5809 16.0387C54.8329 15.6734 55.3242 15.686 55.7022 16.0765Z" fill="black"/>
<path d="M28.1115 10.0923C28.1493 10.1553 28.2123 10.2183 28.2501 10.2183C28.2753 10.2183 28.3005 10.1553 28.3005 10.0923C28.3005 10.0167 28.2375 9.96629 28.1619 9.96629C28.0989 9.96629 28.0737 10.0167 28.1115 10.0923Z" fill="black"/>
<path d="M24.7725 10.7724C24.7725 11.0118 24.8481 11.5913 24.9489 12.0701C25.1253 12.9267 25.3143 14.237 25.4654 15.7236C25.5536 16.6937 25.4151 16.7441 24.6718 16.026C24.2182 15.585 24.1552 15.4338 24.0166 14.6149C23.941 14.0984 23.8151 13.4937 23.7521 13.2795C23.6261 12.8889 22.7316 11.9819 22.467 11.9819C22.3284 11.9819 22.4418 13.9472 22.6308 14.8795C22.7442 15.4338 22.7442 15.459 22.2781 15.8244C20.8544 16.9708 20.3631 17.5756 19.9851 18.5708C19.519 19.8307 19.2292 20.2464 18.4229 20.8133C17.8056 21.2417 17.7804 21.2795 17.8056 21.796C17.8434 22.5267 18.7253 24.0637 19.5316 24.7818C20.3631 25.5377 21.1694 25.7645 22.7064 25.6889L23.8655 25.6259L23.8025 26.1425C23.6765 27.2259 23.2481 28.6747 22.8828 29.2417C22.0891 30.4889 20.9678 31.3078 19.0277 32.0889C15.5757 33.4873 13.9631 34.4826 11.9852 36.4732C10.4104 38.0354 9.80564 38.8165 8.84816 40.492C7.86549 42.2306 6.88281 44.9519 6.88281 45.9345C6.88281 46.3629 7.85289 48.5298 8.81037 50.2432C11.2923 54.7156 14.7694 58.1802 19.4686 60.8511L20.6403 61.5314L22.971 61.6574C24.5836 61.7455 25.3395 61.7329 25.4277 61.6448C25.5032 61.5692 25.5914 61.2542 25.6166 60.9392C25.7048 60.2085 25.4151 59.4148 24.8733 58.8605C24.1174 58.0794 23.9158 58.029 21.4718 57.9912C20.0103 57.966 19.2292 57.903 19.2292 57.8148C19.2292 57.7392 19.6954 57.2227 20.2749 56.6558C21.9757 54.9802 22.6434 53.5062 22.6434 51.4149C22.6434 48.2653 20.4513 45.7456 17.3647 45.3676C15.3363 45.1031 12.9804 45.859 11.5316 47.2196C11.1411 47.5849 11.0403 47.4967 11.0151 46.7031C10.9773 46.0353 11.1537 45.8086 12.4261 44.8637C13.9631 43.7298 16.193 43.2511 18.0954 43.6542C19.3552 43.9188 21.0182 44.7503 21.8371 45.5314C22.2025 45.8716 22.7946 46.6023 23.1347 47.144C23.4875 47.6983 23.7899 48.1393 23.8151 48.1393C23.8403 48.1393 23.7269 47.6101 23.5631 46.9676C23.3993 46.3377 23.1851 45.3298 23.0844 44.7377C22.8576 43.4023 22.6686 39.8369 22.845 40.0133C23.0466 40.2149 24.0922 43.7172 24.6466 46.0353C24.9237 47.1944 25.3395 49.2731 25.5914 50.6464C25.8308 52.0196 26.1962 53.9345 26.4103 54.892C26.6245 55.8621 26.9143 57.1723 27.0528 57.8274C27.2922 58.9109 27.7458 60.4605 28.0607 61.2416L28.1867 61.5692L30.8576 61.607L33.541 61.6448L33.6922 61.3046C34.3221 59.9188 32.8859 58.092 31.1473 58.092C30.7568 58.092 30.5678 58.029 30.5174 57.8904C30.3914 57.5755 30.4292 51.7802 30.5678 49.5251C30.7316 46.8668 31.0213 44.5109 31.3237 43.3393C31.6135 42.1802 32.1426 40.7692 32.445 40.3409C32.5709 40.1645 32.8607 39.6479 33.0875 39.207C33.3143 38.7535 33.5914 38.2495 33.7174 38.0731C34.0324 37.6322 34.8261 35.4779 35.078 34.3692C35.2418 33.6637 35.2796 32.807 35.2796 30.5015C35.2796 27.7551 35.2544 27.4275 34.9268 25.9031C34.1205 22.0858 32.6087 18.6716 30.4922 15.9378C29.5095 14.6653 25.73 10.8228 25.1883 10.5456L24.7725 10.3315V10.7724ZM22.9332 18.9236C23.3489 19.2511 23.3489 19.6543 22.9458 20.0952C22.5678 20.4984 21.9883 20.5362 21.6103 20.1582C21.2828 19.8307 21.371 19.3519 21.8245 18.9362C22.2151 18.596 22.5048 18.5834 22.9332 18.9236Z" fill="black"/>
<path d="M32.9619 15.3711C32.9619 15.4467 33.0249 15.5349 33.0879 15.5727C33.1635 15.6105 33.2139 15.5601 33.2139 15.4593C33.2139 15.3459 33.1635 15.2577 33.0879 15.2577C33.0249 15.2577 32.9619 15.3081 32.9619 15.3711Z" fill="black"/>
<path d="M67.3555 24.908C67.2044 25.2355 66.8264 25.9032 66.5114 26.382L65.9319 27.2639L66.2595 28.2843C66.9524 30.4639 67.2674 32.1898 67.4815 35.0371C67.9603 41.4119 65.5918 48.8701 61.2831 54.5016C57.7052 59.1756 52.7288 62.8165 47.3241 64.6937C46.4548 64.9961 45.7493 65.311 45.7619 65.3866C45.7745 65.4622 45.7871 66.0669 45.7997 66.7346L45.8123 67.9441L46.3666 67.8685C47.3367 67.7173 49.6044 66.9236 51.1666 66.1677C53.1823 65.2102 54.165 64.6181 56.0926 63.2323C59.0028 61.1536 60.3256 59.9819 62.0894 57.9032C66.1083 53.1914 68.6154 48.1142 69.8248 42.2182C70.8957 37.0906 70.3288 30.867 68.3382 25.7521C68.0611 25.034 67.7839 24.4292 67.7209 24.3914C67.6579 24.341 67.4941 24.5804 67.3555 24.908Z" fill="black"/>
<path d="M50.31 43.1881C50.247 45.5062 50.1966 45.9724 49.8187 47.5094C49.4029 49.2858 48.1935 52.0574 47.1352 53.7078C46.1903 55.1692 45.0565 56.555 43.784 57.8023C39.9667 61.5314 37.5478 62.5645 30.1904 63.6227C27.8219 63.9629 27.4565 64.1519 28.0864 64.744C28.5526 65.1849 29.6108 65.4369 30.5683 65.3487C31.0218 65.2983 32.2943 65.1849 33.4029 65.0842C37.0943 64.7692 40.0801 63.8117 42.4738 62.1487C43.7966 61.2416 46.0895 59.1125 47.2612 57.7015C48.9116 55.7235 50.7887 52.5991 51.5446 50.596C52.4139 48.2779 52.8927 45.5314 52.9179 42.785L52.9305 40.7692L51.658 40.7315L50.3856 40.6937L50.31 43.1881Z" fill="black"/>
<path d="M35.6455 42.5835C34.2723 43.2134 33.6298 44.4732 33.7557 46.2622C33.7935 46.8039 33.8565 47.2953 33.9069 47.3709C34.0077 47.5472 37.0439 47.5598 37.3715 47.3835C37.4975 47.3079 37.8502 46.9173 38.14 46.489C38.7573 45.6197 38.8077 45.6323 39.2612 46.8543C39.551 47.6102 40.1179 48.6433 40.2565 48.6433C40.3069 48.6433 40.7353 48.0512 41.214 47.3331C42.1715 45.9095 42.2849 45.8591 42.5242 46.8039C42.688 47.4717 42.8266 47.5095 44.8801 47.5095H46.3037L46.3919 47.0559C46.4297 46.8165 46.4423 46.174 46.4171 45.6323C46.3541 44.4984 46.014 43.7929 45.2329 43.1C44.5904 42.5457 44.0612 42.3441 43.2045 42.3441C42.2597 42.3441 41.34 42.7725 40.5841 43.5536L40.0046 44.1457L39.2864 43.4402C38.8959 43.0496 38.3542 42.6465 38.1022 42.5331C37.4597 42.2685 36.3006 42.2937 35.6455 42.5835Z" fill="black"/>
<path d="M38.2783 48.1396L37.9886 48.6435H36.3004H34.5996L34.902 48.9836C35.0658 49.1852 35.6075 49.8151 36.1114 50.4073C36.6154 50.9994 37.3209 51.7805 37.6736 52.1458C38.3917 52.9017 39.765 53.9348 40.0421 53.9348C40.2941 53.9348 41.2138 53.3175 42.0453 52.5868C43.1287 51.6293 45.5602 49.034 45.5602 48.8325C45.5602 48.6813 45.2956 48.6435 44.0232 48.6435C42.65 48.6435 42.461 48.6183 42.209 48.3789L41.9319 48.127L41.6799 48.4797C41.5539 48.6687 41.3146 49.0592 41.176 49.3364C41.0374 49.6136 40.7476 50.0419 40.5461 50.2813L40.1807 50.7096L39.4374 49.1852C39.0342 48.3411 38.6689 47.6482 38.6311 47.6482C38.5933 47.6356 38.4421 47.8624 38.2783 48.1396Z" fill="black"/>
<path d="M24.3056 53.3676C24.2301 53.5062 24.0789 53.9597 23.9529 54.3755C23.8395 54.7912 23.5875 55.3959 23.386 55.7109L23.0332 56.2904L23.6631 56.366C24.0789 56.4164 24.419 56.5424 24.608 56.7314L24.9104 57.0085L24.8348 56.5172C24.7844 56.24 24.6836 55.3582 24.5954 54.5645C24.4694 53.3928 24.419 53.166 24.3056 53.3676Z" fill="black"/>
</svg>
